<svg width="108" height="108" viewBox="0 0 108 108" fill="none" xmlns="http://www.w3.org/2000/svg">
<g filter="url(#filter0_d_7783_30)">
<rect x="4" width="100" height="100" rx="16" fill="#F2785C"/>
<path d="M39.4167 69.7548C37.4828 69.7548 35.6281 68.957 34.2607 67.537C32.8932 66.1169 32.125 64.1909 32.125 62.1827C32.125 60.1744 32.8932 58.2484 34.2607 56.8284C35.6281 55.4084 37.4828 54.6106 39.4167 54.6106C41.3505 54.6106 43.2052 55.4084 44.5727 56.8284C45.9401 58.2484 46.7083 60.1744 46.7083 62.1827C46.7083 64.1909 45.9401 66.1169 44.5727 67.537C43.2052 68.957 41.3505 69.7548 39.4167 69.7548ZM39.4167 51.3654C36.654 51.3654 34.0045 52.5051 32.051 54.5337C30.0975 56.5623 29 59.3138 29 62.1827C29 65.0516 30.0975 67.803 32.051 69.8317C34.0045 71.8603 36.654 73 39.4167 73C42.1793 73 44.8289 71.8603 46.7824 69.8317C48.7359 67.803 49.8333 65.0516 49.8333 62.1827C49.8333 59.3138 48.7359 56.5623 46.7824 54.5337C44.8289 52.5051 42.1793 51.3654 39.4167 51.3654ZM59.8333 47.0385H68.5833V43.1442H61.9167L57.875 36.0697C57.2708 34.988 56.0833 34.274 54.8333 34.274C53.8542 34.274 52.9583 34.6851 52.3333 35.3558L44.625 43.3389C43.9792 44.0096 43.5833 44.875 43.5833 45.9567C43.5833 47.3197 44.2708 48.4663 45.3542 49.137L52.3333 53.5288V64.3462H56.0833V50.2837L51.3958 46.7139L56.2292 41.6298L59.8333 47.0385ZM68.5833 69.7548C66.6495 69.7548 64.7948 68.957 63.4273 67.537C62.0599 66.1169 61.2917 64.1909 61.2917 62.1827C61.2917 60.1744 62.0599 58.2484 63.4273 56.8284C64.7948 55.4084 66.6495 54.6106 68.5833 54.6106C70.5172 54.6106 72.3719 55.4084 73.7393 56.8284C75.1068 58.2484 75.875 60.1744 75.875 62.1827C75.875 64.1909 75.1068 66.1169 73.7393 67.537C72.3719 68.957 70.5172 69.7548 68.5833 69.7548ZM68.5833 51.3654C65.8207 51.3654 63.1711 52.5051 61.2176 54.5337C59.2641 56.5623 58.1667 59.3138 58.1667 62.1827C58.1667 65.0516 59.2641 67.803 61.2176 69.8317C63.1711 71.8603 65.8207 73 68.5833 73C69.9513 73 71.3058 72.7202 72.5696 72.1766C73.8334 71.633 74.9818 70.8362 75.949 69.8317C76.9163 68.8272 77.6836 67.6347 78.2071 66.3223C78.7306 65.0099 79 63.6032 79 62.1827C79 60.7621 78.7306 59.3555 78.2071 58.0431C77.6836 56.7307 76.9163 55.5382 75.949 54.5337C74.9818 53.5292 73.8334 52.7324 72.5696 52.1888C71.3058 51.6452 69.9513 51.3654 68.5833 51.3654ZM62.3333 35.7885C64.4167 35.7885 66.0833 34.0577 66.0833 31.8942C66.0833 29.7308 64.4167 28 62.3333 28C60.25 28 58.5833 29.7308 58.5833 31.8942C58.5833 34.0577 60.25 35.7885 62.3333 35.7885Z" fill="white"/>
</g>
<defs>
<filter id="filter0_d_7783_30" x="0" y="0" width="108" height="108" filterUnits="userSpaceOnUse" color-interpolation-filters="sRGB">
<feFlood flood-opacity="0" result="BackgroundImageFix"/>
<feColorMatrix in="SourceAlpha" type="matrix" values="0 0 0 0 0 0 0 0 0 0 0 0 0 0 0 0 0 0 127 0" result="hardAlpha"/>
<feOffset dy="4"/>
<feGaussianBlur stdDeviation="2"/>
<feComposite in2="hardAlpha" operator="out"/>
<feColorMatrix type="matrix" values="0 0 0 0 0 0 0 0 0 0 0 0 0 0 0 0 0 0 0.25 0"/>
<feBlend mode="normal" in2="BackgroundImageFix" result="effect1_dropShadow_7783_30"/>
<feBlend mode="normal" in="SourceGraphic" in2="effect1_dropShadow_7783_30" result="shape"/>
</filter>
</defs>
</svg>
